<svg xmlns="http://www.w3.org/2000/svg" xmlns:xlink="http://www.w3.org/1999/xlink" width="500" zoomAndPan="magnify" viewBox="0 0 375 374.999991" height="500" preserveAspectRatio="xMidYMid meet" version="1.0"><defs><g/><clipPath id="c3555d4700"><path d="M 61.738281 128.699219 L 144.988281 128.699219 L 144.988281 220.199219 L 61.738281 220.199219 Z M 61.738281 128.699219 " clip-rule="nonzero"/></clipPath></defs><g fill="#ffffff" fill-opacity="1"><g transform="translate(162.195668, 153.663081)"><g><path d="M 9.4375 -28 L 9.4375 -18.203125 L 14.953125 -18.203125 L 14.953125 -28 L 21.921875 -28 L 21.921875 0 L 14.953125 0 L 14.953125 -11.484375 L 9.4375 -11.484375 L 9.4375 0 L 2.484375 0 L 2.484375 -28 Z M 9.4375 -28 "/></g></g></g><g fill="#ffffff" fill-opacity="1"><g transform="translate(186.633243, 153.663081)"><g><path d="M 22.796875 0 L 16.40625 0 L 16.40625 -9.125 C 16.40625 -10.71875 16.03125 -11.941406 15.28125 -12.796875 C 14.53125 -13.648438 13.394531 -14.078125 11.875 -14.078125 C 11.289062 -14.078125 10.734375 -13.960938 10.203125 -13.734375 C 9.671875 -13.515625 9.203125 -13.21875 8.796875 -12.84375 C 8.398438 -12.46875 8.082031 -12.019531 7.84375 -11.5 C 7.601562 -10.976562 7.484375 -10.425781 7.484375 -9.84375 C 7.484375 -8.476562 7.890625 -7.390625 8.703125 -6.578125 C 9.515625 -5.765625 10.535156 -5.359375 11.765625 -5.359375 C 12.347656 -5.359375 12.890625 -5.410156 13.390625 -5.515625 C 13.898438 -5.628906 14.367188 -5.765625 14.796875 -5.921875 L 14.796875 -0.640625 C 14.179688 -0.210938 13.523438 0.078125 12.828125 0.234375 C 12.140625 0.398438 11.359375 0.484375 10.484375 0.484375 C 9.285156 0.484375 8.117188 0.238281 6.984375 -0.25 C 5.847656 -0.75 4.847656 -1.445312 3.984375 -2.34375 C 3.117188 -3.238281 2.414062 -4.304688 1.875 -5.546875 C 1.34375 -6.785156 1.078125 -8.164062 1.078125 -9.6875 C 1.078125 -11.125 1.34375 -12.460938 1.875 -13.703125 C 2.414062 -14.941406 3.148438 -16.019531 4.078125 -16.9375 C 5.015625 -17.851562 6.132812 -18.578125 7.4375 -19.109375 C 8.75 -19.648438 10.191406 -19.921875 11.765625 -19.921875 C 13.441406 -19.921875 14.957031 -19.6875 16.3125 -19.21875 C 17.675781 -18.75 18.835938 -18.101562 19.796875 -17.28125 C 20.753906 -16.457031 21.492188 -15.476562 22.015625 -14.34375 C 22.535156 -13.207031 22.796875 -11.972656 22.796875 -10.640625 Z M 22.796875 0 "/></g></g></g><g fill="#ffffff" fill-opacity="1"><g transform="translate(211.070818, 153.663081)"><g><path d="M 14 -19.4375 L 14 -13.640625 L 11.15625 -13.640625 C 9.925781 -13.640625 8.960938 -13.289062 8.265625 -12.59375 C 7.578125 -11.90625 7.234375 -10.945312 7.234375 -9.71875 C 7.234375 -8.488281 7.578125 -7.519531 8.265625 -6.8125 C 8.960938 -6.113281 9.925781 -5.765625 11.15625 -5.765625 L 14 -5.765625 L 14 0 L 10.046875 0 C 8.835938 0 7.671875 -0.234375 6.546875 -0.703125 C 5.429688 -1.171875 4.453125 -1.828125 3.609375 -2.671875 C 2.773438 -3.523438 2.101562 -4.550781 1.59375 -5.75 C 1.09375 -6.957031 0.84375 -8.28125 0.84375 -9.71875 C 0.84375 -11.1875 1.101562 -12.519531 1.625 -13.71875 C 2.144531 -14.914062 2.828125 -15.9375 3.671875 -16.78125 C 4.523438 -17.625 5.503906 -18.273438 6.609375 -18.734375 C 7.722656 -19.203125 8.867188 -19.4375 10.046875 -19.4375 Z M 14 -19.4375 "/></g></g></g><g fill="#ffffff" fill-opacity="1"><g transform="translate(226.629277, 153.663081)"><g><path d="M 8 -28 L 8 -13.484375 L 8.28125 -13.484375 C 8.707031 -13.484375 9.078125 -13.554688 9.390625 -13.703125 C 9.710938 -13.847656 10.019531 -14.125 10.3125 -14.53125 C 10.613281 -14.945312 10.914062 -15.546875 11.21875 -16.328125 C 11.53125 -17.117188 11.894531 -18.15625 12.3125 -19.4375 L 18.875 -19.4375 L 17.078125 -14.3125 C 16.460938 -12.53125 15.632812 -11.519531 14.59375 -11.28125 L 14.59375 -11.203125 C 15.34375 -10.929688 15.984375 -10.632812 16.515625 -10.3125 C 17.046875 -10 17.472656 -9.613281 17.796875 -9.15625 C 18.117188 -8.707031 18.351562 -8.175781 18.5 -7.5625 C 18.644531 -6.945312 18.71875 -6.226562 18.71875 -5.40625 L 18.71875 0 L 12.5625 0 L 12.5625 -5.078125 C 12.5625 -5.898438 12.335938 -6.53125 11.890625 -6.96875 C 11.453125 -7.414062 10.847656 -7.640625 10.078125 -7.640625 L 8 -7.640625 L 8 0 L 1.59375 0 L 1.59375 -28 Z M 8 -28 "/></g></g></g><g fill="#ffffff" fill-opacity="1"><g transform="translate(246.627289, 153.663081)"><g><path d="M 17.484375 -28 L 17.484375 -21.28125 L 12.359375 -21.28125 L 12.359375 0 L 5.40625 0 L 5.40625 -21.28125 L 0.28125 -21.28125 L 0.28125 -28 Z M 17.484375 -28 "/></g></g></g><g fill="#ffffff" fill-opacity="1"><g transform="translate(264.38552, 153.663081)"><g><path d="M 7.796875 -28 L 7.796875 -18.875 C 8.390625 -19.164062 8.972656 -19.410156 9.546875 -19.609375 C 10.117188 -19.816406 10.773438 -19.921875 11.515625 -19.921875 C 12.640625 -19.921875 13.640625 -19.71875 14.515625 -19.3125 C 15.398438 -18.914062 16.140625 -18.378906 16.734375 -17.703125 C 17.335938 -17.023438 17.796875 -16.238281 18.109375 -15.34375 C 18.429688 -14.445312 18.59375 -13.503906 18.59375 -12.515625 L 18.59375 0 L 12.203125 0 L 12.203125 -11.40625 C 12.203125 -12.175781 11.992188 -12.757812 11.578125 -13.15625 C 11.160156 -13.5625 10.632812 -13.765625 10 -13.765625 C 9.363281 -13.765625 8.835938 -13.5625 8.421875 -13.15625 C 8.003906 -12.757812 7.796875 -12.175781 7.796875 -11.40625 L 7.796875 0 L 1.40625 0 L 1.40625 -28 Z M 7.796875 -28 "/></g></g></g><g fill="#ffffff" fill-opacity="1"><g transform="translate(284.383531, 153.663081)"><g><path d="M 10.875 -7.078125 L 8.4375 -10.921875 L 13.6875 -14.359375 C 13.226562 -14.628906 12.796875 -14.8125 12.390625 -14.90625 C 11.992188 -15 11.597656 -15.046875 11.203125 -15.046875 C 10.585938 -15.046875 10.03125 -14.90625 9.53125 -14.625 C 9.039062 -14.34375 8.613281 -13.96875 8.25 -13.5 C 7.894531 -13.03125 7.617188 -12.492188 7.421875 -11.890625 C 7.222656 -11.296875 7.125 -10.679688 7.125 -10.046875 C 7.125 -9.347656 7.242188 -8.703125 7.484375 -8.109375 C 7.722656 -7.523438 8.039062 -7.003906 8.4375 -6.546875 C 8.84375 -6.097656 9.300781 -5.75 9.8125 -5.5 C 10.332031 -5.25 10.875 -5.125 11.4375 -5.125 C 12.5625 -5.125 13.65625 -5.53125 14.71875 -6.34375 C 15.78125 -7.15625 16.59375 -8.203125 17.15625 -9.484375 L 21.765625 -7.125 C 21.285156 -5.976562 20.671875 -4.9375 19.921875 -4 C 19.171875 -3.0625 18.328125 -2.257812 17.390625 -1.59375 C 16.460938 -0.925781 15.457031 -0.410156 14.375 -0.046875 C 13.300781 0.304688 12.175781 0.484375 11 0.484375 C 9.632812 0.484375 8.34375 0.210938 7.125 -0.328125 C 5.914062 -0.878906 4.851562 -1.628906 3.9375 -2.578125 C 3.019531 -3.523438 2.289062 -4.613281 1.75 -5.84375 C 1.21875 -7.070312 0.953125 -8.363281 0.953125 -9.71875 C 0.953125 -11.082031 1.21875 -12.375 1.75 -13.59375 C 2.289062 -14.820312 3.019531 -15.898438 3.9375 -16.828125 C 4.851562 -17.765625 5.914062 -18.515625 7.125 -19.078125 C 8.34375 -19.640625 9.632812 -19.921875 11 -19.921875 C 13.238281 -19.921875 15.125 -19.359375 16.65625 -18.234375 C 18.1875 -17.117188 19.472656 -15.613281 20.515625 -13.71875 Z M 10.875 -7.078125 "/></g></g></g><g fill="#ffffff" fill-opacity="1"><g transform="translate(164.335833, 223.24161)"><g><path d="M 31.5625 -50.5625 L 31.5625 -38.421875 L 22.328125 -38.421875 L 22.328125 0 L 9.75 0 L 9.75 -38.421875 L 0.5 -38.421875 L 0.5 -50.5625 Z M 31.5625 -50.5625 "/></g></g></g><g fill="#ffffff" fill-opacity="1"><g transform="translate(196.404772, 223.24161)"><g><path d="M 19.640625 -12.78125 L 15.234375 -19.71875 L 24.703125 -25.9375 C 23.878906 -26.414062 23.109375 -26.738281 22.390625 -26.90625 C 21.671875 -27.070312 20.945312 -27.15625 20.21875 -27.15625 C 19.113281 -27.15625 18.113281 -26.898438 17.21875 -26.390625 C 16.332031 -25.890625 15.5625 -25.21875 14.90625 -24.375 C 14.257812 -23.53125 13.753906 -22.566406 13.390625 -21.484375 C 13.035156 -20.398438 12.859375 -19.28125 12.859375 -18.125 C 12.859375 -16.875 13.070312 -15.71875 13.5 -14.65625 C 13.9375 -13.601562 14.515625 -12.664062 15.234375 -11.84375 C 15.960938 -11.03125 16.796875 -10.394531 17.734375 -9.9375 C 18.671875 -9.476562 19.644531 -9.25 20.65625 -9.25 C 22.675781 -9.25 24.648438 -9.984375 26.578125 -11.453125 C 28.503906 -12.921875 29.972656 -14.8125 30.984375 -17.125 L 39.296875 -12.859375 C 38.429688 -10.785156 37.320312 -8.90625 35.96875 -7.21875 C 34.625 -5.53125 33.109375 -4.082031 31.421875 -2.875 C 29.734375 -1.675781 27.914062 -0.753906 25.96875 -0.109375 C 24.019531 0.535156 21.984375 0.859375 19.859375 0.859375 C 17.410156 0.859375 15.085938 0.367188 12.890625 -0.609375 C 10.703125 -1.597656 8.773438 -2.945312 7.109375 -4.65625 C 5.453125 -6.363281 4.140625 -8.328125 3.171875 -10.546875 C 2.210938 -12.765625 1.734375 -15.097656 1.734375 -17.546875 C 1.734375 -20.003906 2.210938 -22.335938 3.171875 -24.546875 C 4.140625 -26.765625 5.453125 -28.71875 7.109375 -30.40625 C 8.773438 -32.09375 10.703125 -33.441406 12.890625 -34.453125 C 15.085938 -35.460938 17.410156 -35.96875 19.859375 -35.96875 C 23.910156 -35.96875 27.316406 -34.957031 30.078125 -32.9375 C 32.847656 -30.914062 35.175781 -28.195312 37.0625 -24.78125 Z M 19.640625 -12.78125 "/></g></g></g><g fill="#ffffff" fill-opacity="1"><g transform="translate(236.563184, 223.24161)"><g><path d="M 25.28125 -35.109375 L 25.28125 -24.625 L 20.15625 -24.625 C 17.9375 -24.625 16.203125 -24 14.953125 -22.75 C 13.703125 -21.5 13.078125 -19.765625 13.078125 -17.546875 C 13.078125 -15.335938 13.703125 -13.59375 14.953125 -12.3125 C 16.203125 -11.039062 17.9375 -10.40625 20.15625 -10.40625 L 25.28125 -10.40625 L 25.28125 0 L 18.125 0 C 15.957031 0 13.863281 -0.421875 11.84375 -1.265625 C 9.820312 -2.109375 8.050781 -3.300781 6.53125 -4.84375 C 5.019531 -6.382812 3.804688 -8.238281 2.890625 -10.40625 C 1.972656 -12.570312 1.515625 -14.953125 1.515625 -17.546875 C 1.515625 -20.203125 1.984375 -22.613281 2.921875 -24.78125 C 3.859375 -26.945312 5.097656 -28.785156 6.640625 -30.296875 C 8.179688 -31.816406 9.953125 -33 11.953125 -33.84375 C 13.953125 -34.6875 16.007812 -35.109375 18.125 -35.109375 Z M 25.28125 -35.109375 "/></g></g></g><g fill="#ffffff" fill-opacity="1"><g transform="translate(264.659636, 223.24161)"><g><path d="M 14.078125 -50.5625 L 14.078125 -34.09375 C 15.140625 -34.625 16.1875 -35.066406 17.21875 -35.421875 C 18.257812 -35.785156 19.453125 -35.96875 20.796875 -35.96875 C 22.828125 -35.96875 24.632812 -35.609375 26.21875 -34.890625 C 27.8125 -34.171875 29.148438 -33.195312 30.234375 -31.96875 C 31.316406 -30.738281 32.144531 -29.316406 32.71875 -27.703125 C 33.300781 -26.085938 33.59375 -24.390625 33.59375 -22.609375 L 33.59375 0 L 22.03125 0 L 22.03125 -20.59375 C 22.03125 -21.988281 21.65625 -23.046875 20.90625 -23.765625 C 20.164062 -24.484375 19.21875 -24.84375 18.0625 -24.84375 C 16.90625 -24.84375 15.953125 -24.484375 15.203125 -23.765625 C 14.453125 -23.046875 14.078125 -21.988281 14.078125 -20.59375 L 14.078125 0 L 2.53125 0 L 2.53125 -50.5625 Z M 14.078125 -50.5625 "/></g></g></g><path fill="#ffffff" d="M 97.886719 186.234375 C 97.886719 188.675781 95.910156 190.652344 93.46875 190.652344 C 91.027344 190.652344 89.050781 188.675781 89.050781 186.234375 L 89.050781 178.84375 C 89.050781 176.402344 91.03125 174.425781 93.46875 174.425781 C 95.910156 174.425781 97.886719 176.402344 97.886719 178.84375 Z M 118.191406 178.84375 C 118.191406 176.402344 116.214844 174.425781 113.773438 174.425781 C 111.332031 174.425781 109.351562 176.402344 109.351562 178.84375 L 109.351562 186.234375 C 109.351562 188.675781 111.332031 190.652344 113.773438 190.652344 C 116.214844 190.652344 118.191406 188.675781 118.191406 186.234375 Z M 118.191406 178.84375 " fill-opacity="1" fill-rule="nonzero"/><g clip-path="url(#c3555d4700)"><path fill="#ffffff" d="M 145.183594 185.464844 L 145.183594 195.890625 C 145.183594 199.761719 142.046875 202.898438 138.175781 202.898438 C 136.699219 202.898438 135.328125 202.4375 134.199219 201.65625 C 128.40625 212.636719 116.875 220.140625 103.621094 220.140625 C 90.296875 220.140625 78.71875 212.554688 72.953125 201.484375 C 71.78125 202.367188 70.324219 202.898438 68.742188 202.898438 C 64.875 202.898438 61.738281 199.761719 61.738281 195.890625 L 61.738281 185.464844 C 61.738281 181.597656 64.875 178.460938 68.746094 178.460938 C 69.097656 178.460938 69.441406 178.492188 69.78125 178.542969 C 71.878906 168.335938 78.488281 159.558594 88.0625 154.722656 L 92.367188 163.25 C 83.886719 167.53125 78.617188 176.089844 78.617188 185.582031 C 78.617188 199.371094 89.835938 210.585938 103.621094 210.585938 C 117.40625 210.585938 128.621094 199.371094 128.621094 185.582031 C 128.621094 172.957031 119.214844 162.496094 107.042969 160.820312 C 107.042969 160.820312 107.046875 160.816406 107.046875 160.816406 C 107.046875 160.816406 107.027344 160.816406 107 160.816406 C 106.652344 160.769531 106.304688 160.726562 105.953125 160.695312 C 103.722656 160.269531 98.84375 158.371094 98.84375 149.832031 L 98.84375 143.042969 L 91.039062 143.042969 L 103.621094 128.710938 L 116.203125 143.042969 L 108.398438 143.042969 L 108.398438 148.371094 C 108.496094 149.484375 108.984375 151.195312 110.914062 151.8125 C 111.191406 151.871094 111.464844 151.929688 111.742188 151.996094 C 111.761719 152 111.777344 152.003906 111.796875 152.007812 L 111.796875 152.011719 C 124.65625 155.144531 134.71875 165.488281 137.441406 178.5 C 137.683594 178.476562 137.929688 178.460938 138.179688 178.460938 C 142.046875 178.460938 145.183594 181.597656 145.183594 185.464844 Z M 145.183594 185.464844 " fill-opacity="1" fill-rule="nonzero"/></g></svg>